<?xml version="1.0" encoding="utf-8"?>
<!-- Generator: Adobe Illustrator 18.1.1, SVG Export Plug-In . SVG Version: 6.00 Build 0)  -->
<svg version="1.1" id="Layer_1" xmlns="http://www.w3.org/2000/svg" xmlns:xlink="http://www.w3.org/1999/xlink" x="0px" y="0px"
	 width="165px" height="28px" viewBox="0 0 165 28" enable-background="new 0 0 165 28" xml:space="preserve">
<g>
	<g>
		<path fill="#0A1B30" d="M7.9,0.7c2.1,0,3.5,1.2,4.1,2.8c0.7,1.7,0.5,3.6-1.2,4.8c1.9,0.8,2.6,2.6,2.6,4.2c0,2.5-1.7,5.1-4.9,5.1
			H0.9V0.7H7.9z M3.3,7.4h4.5c2.6,0,2.7-4.4,0-4.4H3.3V7.4z M3.3,15.1h5.2c1.6,0,2.4-1.4,2.4-2.7c0-1.3-0.8-2.7-2.4-2.7H3.3V15.1z"
			/>
		<path fill="#0A1B30" d="M17.7,15.1h7.9v2.4H15.3V0.7h2.4V15.1z"/>
		<path fill="#0A1B30" d="M37,12.5h-6c-0.6,1.5-1.5,3.6-2,4.9h-2.6l6.7-17h1.8l6.7,17H39L37,12.5z M31.9,10.3h4.2L34,4.3L31.9,10.3z
			"/>
		<path fill="#0A1B30" d="M45.4,0.7v16.8H43V0.7H45.4z M45.8,8.5l5.9-7.8h3L48.3,9l7.1,8.4h-3.2l-6.4-7.8V8.5z"/>
		<path fill="#0A1B30" d="M58.5,15.1h7.8v2.4H56.1V0.7h10.2v2.4h-7.8v4.7h7.6v2.4h-7.6V15.1z"/>
		<path fill="#0A1B30" d="M79.5,17.5h-2.4V0.7h2l5.5,8.2l5.5-8.2h1.9v16.8h-2.4V5.7l-4.4,6.5h-1.4l-4.4-6.5V17.5z"/>
		<path fill="#0A1B30" d="M103.9,12.5h-6c-0.6,1.5-1.5,3.6-2,4.9h-2.6l6.7-17h1.8l6.7,17h-2.6L103.9,12.5z M98.7,10.3h4.2l-2.1-5.9
			L98.7,10.3z"/>
		<path fill="#0A1B30" d="M111.6,17.6V2.9h-5.1V0.7H119v2.3H114v14.6H111.6z"/>
		<path fill="#0A1B30" d="M125.5,17.6V2.9h-5.1V0.7H133v2.3h-5.1v14.6H125.5z"/>
		<path fill="#0A1B30" d="M135.2,3c1.5-1.6,3.7-2.5,6-2.5c2.4,0,4.5,1,6.1,2.5c1.5,1.6,2.5,3.7,2.5,6.1c0,2.4-1,4.5-2.5,6.1
			c-1.6,1.6-3.7,2.5-6.1,2.5c-2.4,0-4.5-1-6-2.5c-1.5-1.6-2.5-3.7-2.5-6.1C132.7,6.7,133.7,4.6,135.2,3z M145.6,4.7
			c-1.1-1.1-2.7-1.8-4.3-1.8s-3.2,0.7-4.3,1.8c-1.1,1.1-1.8,2.6-1.8,4.3s0.7,3.2,1.8,4.3c1.1,1.1,2.6,1.8,4.3,1.8s3.2-0.7,4.3-1.8
			c1.1-1.1,1.8-2.6,1.8-4.3C147.4,7.4,146.7,5.8,145.6,4.7z"/>
		<path fill="#0A1B30" d="M161.1,5c-0.3-1.5-2-2.2-3.4-2.1c-1.1,0-2.4,0.4-3,1.3c-0.3,0.4-0.5,1-0.4,1.6c0.1,1.7,2,1.9,3.8,2.1
			c2.3,0.3,5.2,0.9,5.8,3.6c0.1,0.4,0.1,0.8,0.1,1.1c0,3.2-3.2,5.1-6.2,5.1c-2.6,0-5.7-1.5-6-4.5l0-0.5l2.4,0l0,0.4v-0.1
			c0.2,1.6,2.1,2.4,3.6,2.4c1.8,0,3.8-1,3.8-2.7c0-0.2,0-0.4-0.1-0.6c-0.3-1.3-2-1.5-3.7-1.7c-2.6-0.3-5.7-0.8-6-4.3v0
			c-0.1-1.1,0.2-2.3,0.9-3.2c1.1-1.5,3.1-2.2,5.1-2.2c2.6,0,5.3,1.3,5.7,4.4L161.1,5z"/>
	</g>
	<rect x="0.5" y="24" fill="#0598E2" width="164" height="4"/>
</g>
</svg>
