<?xml version="1.0" encoding="utf-8"?>
<!-- Generator: Adobe Illustrator 18.1.1, SVG Export Plug-In . SVG Version: 6.00 Build 0)  -->
<svg version="1.1" id="Layer_1" xmlns="http://www.w3.org/2000/svg" xmlns:xlink="http://www.w3.org/1999/xlink" x="0px" y="0px"
	 width="1170px" height="400px" viewBox="-214 401 1170 400" enable-background="new -214 401 1170 400" xml:space="preserve">
<polygon fill="#CECECE" points="674.9,801 60.8,801 112.4,686 623.3,686 "/>
<g>
	<g id="base_6_">
		<path fill="#8F96A3" d="M606.9,710.2c0,4-15.1,7.2-33.7,7.2c-18.6,0-33.7-3.2-33.7-7.2v-9.1c5.9-2.1,21.3,1.9,33.7,1.9
			c13.8,0,28.5-4.4,33.7-1.9V710.2z"/>
		<ellipse fill="#777879" cx="573.2" cy="700.9" rx="33.7" ry="7.2"/>
	</g>
	<g>
		<path fill="#C7C1BB" d="M645,535.7c0-1.8-1.5-3.2-1.5-3.5V531h-5v9h5v-0.8C643.5,538.9,645,537.5,645,535.7z"/>
		<g>
			<g>
				<defs>
					<path id="SVGID_1_" d="M645,535.7c0-1.8-1.5-3.2-1.5-3.5V531h-5v9h5v-0.8C643.5,538.9,645,537.5,645,535.7z"/>
				</defs>
				<clipPath id="SVGID_2_">
					<use xlink:href="#SVGID_1_"  overflow="visible"/>
				</clipPath>
				<path clip-path="url(#SVGID_2_)" fill="none" stroke="#777879" stroke-width="0.3894" stroke-miterlimit="10" d="M641.8,531.4
					c1,0,1.8,1.9,1.8,4.3c0,2.4-0.8,4.3-1.8,4.3"/>
			</g>
		</g>
	</g>
	<g id="lamp_6_">
		<path fill="#333939" d="M628.5,509.5c0,0.3-0.2,0.5-0.5,0.5l0,0c-0.3,0-0.5-0.2-0.5-0.5v-3c0-0.3,0.2-0.5,0.5-0.5l0,0
			c0.3,0,0.5,0.2,0.5,0.5V509.5z"/>
		<ellipse fill="#C7C1BB" cx="629.5" cy="513.4" rx="6.1" ry="5.9"/>
		<path fill="#8F96A3" d="M640.5,582.7c0,1.8-1.4,4.3-3.4,4.3h-15.6c-1.9,0-3-2.5-3-4.3v-68.6c0-1.8,1.1-4.1,3-4.1h15.6
			c1.9,0,3.4,2.3,3.4,4.1V582.7z"/>
		<g>
			<path fill="#333939" d="M623.5,523c0,0.6-0.4,1-1,1l0,0c-0.6,0-1-0.4-1-1v-7c0-0.6,0.4-1,1-1l0,0c0.6,0,1,0.4,1,1V523z"/>
		</g>
		<g>
			<path fill="#333939" d="M630.5,523c0,0.6-0.4,1-1,1l0,0c-0.6,0-1-0.4-1-1v-7c0-0.6,0.4-1,1-1l0,0c0.6,0,1,0.4,1,1V523z"/>
		</g>
		<g>
			<path fill="#333939" d="M637.5,523c0,0.6-0.4,1-1,1l0,0c-0.6,0-1-0.4-1-1v-7c0-0.6,0.4-1,1-1l0,0c0.6,0,1,0.4,1,1V523z"/>
		</g>
		<path fill="#8F96A3" d="M658.9,596c0.7-4,1-7.1,1-10.8c0-22.8-13.6-41.4-30.4-41.4c-16.8,0-30.4,18.6-30.4,41.4
			c0,3.7,0.4,6.8,1,10.8H658.9L658.9,596z"/>
		<path fill="#8F96A3" d="M618.4,535.7c0,0-2.6,10.1-7.5,15.9c-5,5.7-13.3,12.6-13.3,35.7v8.7h32L618.4,535.7z"/>
		<path fill="#8F96A3" d="M640.2,537.3c0,0,2.3,8.6,7.2,14.3c5,5.7,15,12.6,13,35.7v8.7H629L640.2,537.3z"/>
		<ellipse fill="#414A4A" cx="629.3" cy="595.7" rx="31.9" ry="1.4"/>
	</g>
	<rect x="569.5" y="553" fill="#8F96A3" width="8" height="147"/>
	<g>
		<path fill="#C7C1BB" d="M569.7,538.6l7.3-1.1c0,0,6,7.2,2.5,15.8l-7.3,1.1L569.7,538.6z"/>
		
			<ellipse transform="matrix(-0.1532 -0.9882 0.9882 -0.1532 118.374 1194.3007)" fill="#DBD4CE" cx="570.9" cy="546.4" rx="8" ry="3.7"/>
		
			<ellipse transform="matrix(-0.1529 -0.9882 0.9882 -0.1529 118.3145 1193.9451)" fill="#777879" cx="570.9" cy="546.3" rx="5.5" ry="2.5"/>
	</g>
	<path fill="#8F96A3" d="M608.8,533.7l-32,7.9c0,0-2.5,3.3,0,5.1c2.5,1.9,35.3-9.4,35.3-9.4L608.8,533.7z"/>
	<path fill="#DBD4CE" d="M616.3,533.1l-8.9-0.9c0,0-2.8,3.1-0.7,5.5l10.1,1.4L616.3,533.1z"/>
	<g>
		<path fill="#C7C1BB" d="M614,535.7c0-1.8-0.5-3.2,1.5-3.5V531h5v9h-5v-0.8C613.5,538.9,614,537.5,614,535.7z"/>
		<g>
			<g>
				<defs>
					<path id="SVGID_3_" d="M614,535.7c0-1.8-0.5-3.2,1.5-3.5V531h5v9h-5v-0.8C613.5,538.9,614,537.5,614,535.7z"/>
				</defs>
				<clipPath id="SVGID_4_">
					<use xlink:href="#SVGID_3_"  overflow="visible"/>
				</clipPath>
				<path clip-path="url(#SVGID_4_)" fill="none" stroke="#777879" stroke-width="0.3894" stroke-miterlimit="10" d="M614.7,531.4
					c1,0,1.8,1.9,1.8,4.3c0,2.4-0.8,4.3-1.8,4.3"/>
			</g>
		</g>
		<ellipse fill="#C7C1BB" cx="618.4" cy="535.7" rx="1.3" ry="3.5"/>
	</g>
</g>
<g id="plant_5_">
	<g id="cup_15_">
		<path fill="#FFFFFF" d="M636.9,697.7l-44.5,0.7l4,39c0,0,13.6,10.9,36.3,0L636.9,697.7z"/>
		
			<ellipse fill="#33362F" stroke="#FFFFFF" stroke-width="1.5031" stroke-miterlimit="10" cx="614.6" cy="697.9" rx="22.1" ry="4.2"/>
	</g>
	<g id="Leaves_6_">
		<g>
			<path fill="#507127" d="M609.2,665.1c0,0-7.6,13.5,3.5,19.6C612.6,684.7,618.8,668.6,609.2,665.1z"/>
			<path fill="#507127" d="M611.8,679.7c0,0-1.1,13.9,2.5,22s1.4,0.1,1.4,0.1l-2.9-22L611.8,679.7z"/>
		</g>
		<g>
			<path fill="#1F2918" d="M598.2,661.4c0,0-8.1,7.3-2.2,15.3c6,8,2.6,0.1,2.2,3.9c0,0-2.3,8,7,9c9.3,0.9-0.3-20.4-0.3-20.4
				S603.3,661.4,598.2,661.4z"/>
			<path fill="#1F2918" d="M604.9,685.3c0,0,8.9,13.7,6.8,23.4c-2.2,9.7,1.7,2.2,1.7,2.2s-0.8-13.5-6.5-27.5
				S604.9,685.3,604.9,685.3z"/>
		</g>
		<g>
			<path fill="#507127" d="M617.2,653.6c0,0-9.1,12.5,1,27.2C618.1,680.8,631.6,658.5,617.2,653.6z"/>
			<path fill="#507127" d="M617.2,677.3c0,0-4.7,23.7,0,28.1c4.7,4.4,1.6-1.1,1.6-1.1s-4.5-7.6,0.5-27"/>
		</g>
		<g>
			<path fill="#4E563D" d="M592.1,673.9c0,0-8.7,7.7,10.1,17.7C602.2,691.6,606.5,672.1,592.1,673.9z"/>
			<path fill="#4E563D" d="M598.7,687.7c0,0,3.5,9,7.8,13.2s6.7,4.3,6.7,4.3s-10.1-8.6-12.7-17.5
				C597.9,678.8,598.7,687.7,598.7,687.7z"/>
		</g>
		<g>
			<path fill="#507127" d="M626.4,670.3c0,0-9.7,4.2-4.3,20.8C622.2,691.1,635.5,679.7,626.4,670.3z"/>
			<path fill="#507127" d="M622.2,684.4c0,0-1.5,18.3-5.3,20.4c-3.7,2.1,2,0.6,2,0.6l4.6-20.5L622.2,684.4z"/>
		</g>
		<g>
			<path fill="#778F62" d="M625.5,693.1c0,0-0.1-0.5-0.1-1.3c-0.2-4-0.3-15.5,6.2-15.6C639.5,676.1,632.5,692.8,625.5,693.1z"/>
			<path fill="#778F62" d="M615.8,703c0,0,11.9-9.7,10.8-13.1c-1.1-3.4,1.6,1.2,1.6,1.2l-12,13.1"/>
		</g>
	</g>
	<path fill="#FFFFFF" d="M636.7,697.2v0.1c0,2.3-9.9,4.2-22.1,4.2c-11.2,0-20.4-1.6-21.9-3.7h-0.4l4,39c0,0,13.6,10.9,36.3,0
		l4.1-39.8L636.7,697.2z"/>
	<ellipse opacity="0.5" fill="#33362F" enable-background="new    " cx="614.6" cy="697.9" rx="22.1" ry="4.2"/>
</g>
<g>
	<g id="coaster_15_">
		<path id="coaster_17_" fill="#68240F" d="M166.2,779.8c0,2.9-5.8,5.3-26.5,5.3c-14.6,0-26.5-2.4-26.5-5.3v-1.4
			c0,0,47.7-1.4,53,0.1V779.8z"/>
		<ellipse id="coaster_16_" fill="#8E3211" cx="139.7" cy="778.6" rx="26.5" ry="5.3"/>
	</g>
	<g id="cup_14_">
		<g>
			<path fill="#FFFFFF" d="M125.8,775.8c0,0-5.7-16.8-4.4-52.6l35.9-0.3c0,0,0.3,33.6-6.7,53C150.7,775.8,138.4,781.2,125.8,775.8z"
				/>
			<g>
				<g>
					<defs>
						<path id="SVGID_5_" d="M125.8,775.8c0,0-5.7-16.8-4.4-52.6l35.9-0.3c0,0,0.3,33.6-6.7,53C150.7,775.8,138.4,781.2,125.8,775.8
							z"/>
					</defs>
					<clipPath id="SVGID_6_">
						<use xlink:href="#SVGID_5_"  overflow="visible"/>
					</clipPath>
					<path clip-path="url(#SVGID_6_)" fill="#B8DADD" d="M122.1,763.1c0,0,17.6,4.8,32.9,0l-1,16.9h-30.9L122.1,763.1z"/>
				</g>
			</g>
			<g>
				<path fill="#A5A9B0" d="M139.4,726.4c-4.1,0-17.5-0.2-17.5-3.2c0-0.9,0.7-1.8,5.6-2.5c3.2-0.5,7.4-0.7,11.9-0.7
					c4.1,0,17.5,0.2,17.5,3.2c0,0.9-0.7,1.8-5.6,2.5C148.2,726.1,143.9,726.4,139.4,726.4z"/>
				<path fill="#FFFFFF" d="M139.4,720.8c9.2,0,16.7,1.1,16.7,2.4c0,1.3-7.5,2.4-16.7,2.4s-16.7-1.1-16.7-2.4
					C122.7,721.9,130.2,720.8,139.4,720.8 M139.4,719.2c-4.5,0-8.8,0.3-12,0.7c-3.9,0.6-6.3,1.3-6.3,3.3s2.4,2.8,6.3,3.3
					c3.2,0.5,7.5,0.7,12,0.7s8.8-0.3,12-0.7c3.9-0.6,6.3-1.3,6.3-3.3s-2.4-2.8-6.3-3.3C148.2,719.4,144,719.2,139.4,719.2
					L139.4,719.2z"/>
			</g>
			<path fill="#FFFFFF" d="M170.5,738c-2.3-12.2-16.2-7.2-16.2-7.2s-1.9,4.3-3.7,9.5l6.4-4.9c0,0,5.8-4.7,9.8,1.7
				c0,0,5.7,13.9-12.5,19.2l-4.2-14.2c-2.4,8.1-3.9,17.5,2.8,17.7C164.4,760.1,172.8,750.3,170.5,738z"/>
			<path opacity="0.4" fill="#FFFFFF" enable-background="new    " d="M139.2,658.8c0,0-13.4,19.6,0,30.3
				c13.4,10.8,10.2,24.4,0,34.4c0,0,20.9-13,4.7-34.4C143.9,689.1,131.7,676.4,139.2,658.8z"/>
		</g>
	</g>
</g>
<polygon fill="#CECECE" points="945,801.5 -214,800.5 -116.7,686.5 847.7,686.5 "/>
<g>
	<g id="base_1_">
		<path fill="#8F96A3" d="M606.9,710.2c0,4-15.1,7.2-33.7,7.2c-18.6,0-33.7-3.2-33.7-7.2v-9.1c5.9-2.1,21.3,1.9,33.7,1.9
			c13.8,0,28.5-4.4,33.7-1.9V710.2z"/>
		<ellipse fill="#777879" cx="573.2" cy="700.9" rx="33.7" ry="7.2"/>
	</g>
	<g>
		<path fill="#C7C1BB" d="M645,535.7c0-1.8-1.5-3.2-1.5-3.5V531h-5v9h5v-0.8C643.5,538.9,645,537.5,645,535.7z"/>
		<g>
			<g>
				<defs>
					<path id="SVGID_7_" d="M645,535.7c0-1.8-1.5-3.2-1.5-3.5V531h-5v9h5v-0.8C643.5,538.9,645,537.5,645,535.7z"/>
				</defs>
				<clipPath id="SVGID_8_">
					<use xlink:href="#SVGID_7_"  overflow="visible"/>
				</clipPath>
				<path clip-path="url(#SVGID_8_)" fill="none" stroke="#777879" stroke-width="0.3894" stroke-miterlimit="10" d="M641.8,531.4
					c1,0,1.8,1.9,1.8,4.3c0,2.4-0.8,4.3-1.8,4.3"/>
			</g>
		</g>
	</g>
	<g id="lamp_1_">
		<path fill="#333939" d="M628.5,509.5c0,0.3-0.2,0.5-0.5,0.5l0,0c-0.3,0-0.5-0.2-0.5-0.5v-3c0-0.3,0.2-0.5,0.5-0.5l0,0
			c0.3,0,0.5,0.2,0.5,0.5V509.5z"/>
		<ellipse fill="#C7C1BB" cx="629.5" cy="513.4" rx="6.1" ry="5.9"/>
		<path fill="#8F96A3" d="M640.5,582.7c0,1.8-1.4,4.3-3.4,4.3h-15.6c-1.9,0-3-2.5-3-4.3v-68.6c0-1.8,1.1-4.1,3-4.1h15.6
			c1.9,0,3.4,2.3,3.4,4.1V582.7z"/>
		<g>
			<path fill="#333939" d="M623.5,523c0,0.6-0.4,1-1,1l0,0c-0.6,0-1-0.4-1-1v-7c0-0.6,0.4-1,1-1l0,0c0.6,0,1,0.4,1,1V523z"/>
		</g>
		<g>
			<path fill="#333939" d="M630.5,523c0,0.6-0.4,1-1,1l0,0c-0.6,0-1-0.4-1-1v-7c0-0.6,0.4-1,1-1l0,0c0.6,0,1,0.4,1,1V523z"/>
		</g>
		<g>
			<path fill="#333939" d="M637.5,523c0,0.6-0.4,1-1,1l0,0c-0.6,0-1-0.4-1-1v-7c0-0.6,0.4-1,1-1l0,0c0.6,0,1,0.4,1,1V523z"/>
		</g>
		<path fill="#8F96A3" d="M658.9,596c0.7-4,1-7.1,1-10.8c0-22.8-13.6-41.4-30.4-41.4c-16.8,0-30.4,18.6-30.4,41.4
			c0,3.7,0.4,6.8,1,10.8H658.9L658.9,596z"/>
		<path fill="#8F96A3" d="M618.4,535.7c0,0-2.6,10.1-7.5,15.9c-5,5.7-13.3,12.6-13.3,35.7v8.7h32L618.4,535.7z"/>
		<path fill="#8F96A3" d="M640.2,537.3c0,0,2.3,8.6,7.2,14.3c5,5.7,15,12.6,13,35.7v8.7H629L640.2,537.3z"/>
		<ellipse fill="#414A4A" cx="629.3" cy="595.7" rx="31.9" ry="1.4"/>
	</g>
	<rect x="569.5" y="553" fill="#8F96A3" width="8" height="147"/>
	<g>
		<path fill="#C7C1BB" d="M569.7,538.6l7.3-1.1c0,0,6,7.2,2.5,15.8l-7.3,1.1L569.7,538.6z"/>
		
			<ellipse transform="matrix(-0.1532 -0.9882 0.9882 -0.1532 118.374 1194.3007)" fill="#DBD4CE" cx="570.9" cy="546.4" rx="8" ry="3.7"/>
		
			<ellipse transform="matrix(-0.1529 -0.9882 0.9882 -0.1529 118.3145 1193.9451)" fill="#777879" cx="570.9" cy="546.3" rx="5.5" ry="2.5"/>
	</g>
	<path fill="#8F96A3" d="M608.8,533.7l-32,7.9c0,0-2.5,3.3,0,5.1c2.5,1.9,35.3-9.4,35.3-9.4L608.8,533.7z"/>
	<path fill="#DBD4CE" d="M616.3,533.1l-8.9-0.9c0,0-2.8,3.1-0.7,5.5l10.1,1.4L616.3,533.1z"/>
	<g>
		<path fill="#C7C1BB" d="M614,535.7c0-1.8-0.5-3.2,1.5-3.5V531h5v9h-5v-0.8C613.5,538.9,614,537.5,614,535.7z"/>
		<g>
			<g>
				<defs>
					<path id="SVGID_9_" d="M614,535.7c0-1.8-0.5-3.2,1.5-3.5V531h5v9h-5v-0.8C613.5,538.9,614,537.5,614,535.7z"/>
				</defs>
				<clipPath id="SVGID_10_">
					<use xlink:href="#SVGID_9_"  overflow="visible"/>
				</clipPath>
				<path clip-path="url(#SVGID_10_)" fill="none" stroke="#777879" stroke-width="0.3894" stroke-miterlimit="10" d="M614.7,531.4
					c1,0,1.8,1.9,1.8,4.3c0,2.4-0.8,4.3-1.8,4.3"/>
			</g>
		</g>
		<ellipse fill="#C7C1BB" cx="618.4" cy="535.7" rx="1.3" ry="3.5"/>
	</g>
</g>
<g id="plant_1_">
	<g id="cup_6_">
		<path fill="#FFFFFF" d="M636.9,697.7l-44.5,0.7l4,39c0,0,13.6,10.9,36.3,0L636.9,697.7z"/>
		
			<ellipse fill="#33362F" stroke="#FFFFFF" stroke-width="1.5031" stroke-miterlimit="10" cx="614.6" cy="697.9" rx="22.1" ry="4.2"/>
	</g>
	<g id="Leaves_1_">
		<g>
			<path fill="#507127" d="M609.2,665.1c0,0-7.6,13.5,3.5,19.6C612.6,684.7,618.8,668.6,609.2,665.1z"/>
			<path fill="#507127" d="M611.8,679.7c0,0-1.1,13.9,2.5,22s1.4,0.1,1.4,0.1l-2.9-22L611.8,679.7z"/>
		</g>
		<g>
			<path fill="#1F2918" d="M598.2,661.4c0,0-8.1,7.3-2.2,15.3c6,8,2.6,0.1,2.2,3.9c0,0-2.3,8,7,9c9.3,0.9-0.3-20.4-0.3-20.4
				S603.3,661.4,598.2,661.4z"/>
			<path fill="#1F2918" d="M604.9,685.3c0,0,8.9,13.7,6.8,23.4c-2.2,9.7,1.7,2.2,1.7,2.2s-0.8-13.5-6.5-27.5
				S604.9,685.3,604.9,685.3z"/>
		</g>
		<g>
			<path fill="#507127" d="M617.2,653.6c0,0-9.1,12.5,1,27.2C618.1,680.8,631.6,658.5,617.2,653.6z"/>
			<path fill="#507127" d="M617.2,677.3c0,0-4.7,23.7,0,28.1c4.7,4.4,1.6-1.1,1.6-1.1s-4.5-7.6,0.5-27"/>
		</g>
		<g>
			<path fill="#4E563D" d="M592.1,673.9c0,0-8.7,7.7,10.1,17.7C602.2,691.6,606.5,672.1,592.1,673.9z"/>
			<path fill="#4E563D" d="M598.7,687.7c0,0,3.5,9,7.8,13.2s6.7,4.3,6.7,4.3s-10.1-8.6-12.7-17.5
				C597.9,678.8,598.7,687.7,598.7,687.7z"/>
		</g>
		<g>
			<path fill="#507127" d="M626.4,670.3c0,0-9.7,4.2-4.3,20.8C622.2,691.1,635.5,679.7,626.4,670.3z"/>
			<path fill="#507127" d="M622.2,684.4c0,0-1.5,18.3-5.3,20.4c-3.7,2.1,2,0.6,2,0.6l4.6-20.5L622.2,684.4z"/>
		</g>
		<g>
			<path fill="#778F62" d="M625.5,693.1c0,0-0.1-0.5-0.1-1.3c-0.2-4-0.3-15.5,6.2-15.6C639.5,676.1,632.5,692.8,625.5,693.1z"/>
			<path fill="#778F62" d="M615.8,703c0,0,11.9-9.7,10.8-13.1c-1.1-3.4,1.6,1.2,1.6,1.2l-12,13.1"/>
		</g>
	</g>
	<path fill="#FFFFFF" d="M636.7,697.2v0.1c0,2.3-9.9,4.2-22.1,4.2c-11.2,0-20.4-1.6-21.9-3.7h-0.4l4,39c0,0,13.6,10.9,36.3,0
		l4.1-39.8L636.7,697.2z"/>
	<ellipse opacity="0.5" fill="#33362F" enable-background="new    " cx="614.6" cy="697.9" rx="22.1" ry="4.2"/>
</g>
<g>
	<path fill="#B0B9C6" d="M409.6,707.8c-5.3,0-8-5.8-8-5.8c-3.3-2.9-3-55.5-3-55.5h-30.2h-30.3c0,0,0.2,52.7-3,55.6
		c0,0-2.8,5.7-8,5.7c0,0-10.3,4.2,0,6.2h41.3h41.2C419.9,712,409.6,707.8,409.6,707.8z"/>
	<g id="shadow_1_" opacity="0.1" enable-background="new    ">
		<g>
			<defs>
				<path id="SVGID_11_" d="M409.6,707.8c-5.3,0-8-5.8-8-5.8c-3.3-2.9-3-55.5-3-55.5h-30.2h-30.3c0,0,0.2,52.7-3,55.6
					c0,0-2.8,5.7-8,5.7c0,0-10.3,4.2,0,6.2h41.3h41.2C419.9,712,409.6,707.8,409.6,707.8z"/>
			</defs>
			<clipPath id="SVGID_12_">
				<use xlink:href="#SVGID_11_"  overflow="visible"/>
			</clipPath>
			<polygon clip-path="url(#SVGID_12_)" fill="#333238" points="323.3,677.7 404,685 397.5,653.2 			"/>
		</g>
	</g>
	<g>
		<g>
			<path fill="#1B1B1E" d="M546.5,664c0,6.6-5.4,12-12,12h-332c-6.6,0-12-5.4-12-12V465c0-6.6,5.4-12,12-12h332c6.6,0,12,5.4,12,12
				V664z"/>
		</g>
		<g>
			<path fill="#333238" d="M535.5,662c0,2.8-2.2,5-5,5h-323c-2.8,0-5-2.2-5-5V468c0-2.8,2.2-5,5-5h323c2.8,0,5,2.2,5,5V662z"/>
		</g>
	</g>
	<g>
		<g>
			<defs>
				<rect id="SVGID_13_" x="202.5" y="463" width="333" height="203"/>
			</defs>
			<clipPath id="SVGID_14_">
				<use xlink:href="#SVGID_13_"  overflow="visible"/>
			</clipPath>
			<rect x="228.5" y="142" clip-path="url(#SVGID_14_)" fill="#272821" width="177" height="51"/>
		</g>
	</g>
	<rect x="368.5" y="463" fill="#FFFFFF" width="167" height="203"/>
	<g>
		<polygon fill="#CECECE" points="450.5,588.5 450.5,568 468.3,557.8 486,568.1 486,588.6 468.2,598.8 		"/>
	</g>
	<g opacity="0.5">
		<polygon fill="#0598E2" points="432.8,578.2 432.9,557.7 450.7,547.5 468.4,557.8 468.3,578.3 450.6,588.5 		"/>
	</g>
	<g>
		<rect x="214.5" y="474" fill="#66878E" width="33" height="5"/>
		<rect x="214.5" y="648" fill="#66878E" width="33" height="5"/>
		<rect x="239.5" y="570" fill="#66878E" width="34" height="5"/>
		<rect x="223.5" y="494" fill="#66878E" width="34" height="5"/>
		<rect x="239.5" y="531" fill="#66878E" width="34" height="7"/>
		<rect x="239.5" y="608" fill="#66878E" width="34" height="7"/>
		<rect x="223.5" y="628" fill="#66878E" width="34" height="6"/>
		<g>
			<rect x="261.5" y="590" fill="#66878E" width="34" height="5"/>
			<rect x="299.5" y="590" fill="#AB7CF5" width="33" height="5"/>
		</g>
		<g>
			<rect x="239.5" y="512" fill="#66878E" width="34" height="6"/>
			<rect x="278.5" y="512" fill="#AB7CF5" width="26" height="6"/>
		</g>
		<g>
			<rect x="261.5" y="552" fill="#66878E" width="34" height="5"/>
			<rect x="300.5" y="552" fill="#F63172" width="33" height="5"/>
		</g>
	</g>
</g>
<g>
	<g id="coaster_3_">
		<path id="coaster_5_" fill="#68240F" d="M166.2,779.8c0,2.9-5.8,5.3-26.5,5.3c-14.6,0-26.5-2.4-26.5-5.3v-1.4c0,0,47.7-1.4,53,0.1
			V779.8z"/>
		<ellipse id="coaster_4_" fill="#8E3211" cx="139.7" cy="778.6" rx="26.5" ry="5.3"/>
	</g>
	<g id="cup_1_">
		<g>
			<path fill="#FFFFFF" d="M125.8,775.8c0,0-5.7-16.8-4.4-52.6l35.9-0.3c0,0,0.3,33.6-6.7,53C150.7,775.8,138.4,781.2,125.8,775.8z"
				/>
			<g>
				<g>
					<defs>
						<path id="SVGID_15_" d="M125.8,775.8c0,0-5.7-16.8-4.4-52.6l35.9-0.3c0,0,0.3,33.6-6.7,53
							C150.7,775.8,138.4,781.2,125.8,775.8z"/>
					</defs>
					<clipPath id="SVGID_16_">
						<use xlink:href="#SVGID_15_"  overflow="visible"/>
					</clipPath>
					<path clip-path="url(#SVGID_16_)" fill="#B8DADD" d="M122.1,763.1c0,0,17.6,4.8,32.9,0l-1,16.9h-30.9L122.1,763.1z"/>
				</g>
			</g>
			<g>
				<path fill="#A5A9B0" d="M139.4,726.4c-4.1,0-17.5-0.2-17.5-3.2c0-0.9,0.7-1.8,5.6-2.5c3.2-0.5,7.4-0.7,11.9-0.7
					c4.1,0,17.5,0.2,17.5,3.2c0,0.9-0.7,1.8-5.6,2.5C148.2,726.1,143.9,726.4,139.4,726.4z"/>
				<path fill="#FFFFFF" d="M139.4,720.8c9.2,0,16.7,1.1,16.7,2.4c0,1.3-7.5,2.4-16.7,2.4s-16.7-1.1-16.7-2.4
					C122.7,721.9,130.2,720.8,139.4,720.8 M139.4,719.2c-4.5,0-8.8,0.3-12,0.7c-3.9,0.6-6.3,1.3-6.3,3.3s2.4,2.8,6.3,3.3
					c3.2,0.5,7.5,0.7,12,0.7s8.8-0.3,12-0.7c3.9-0.6,6.3-1.3,6.3-3.3s-2.4-2.8-6.3-3.3C148.2,719.4,144,719.2,139.4,719.2
					L139.4,719.2z"/>
			</g>
			<path fill="#FFFFFF" d="M170.5,738c-2.3-12.2-16.2-7.2-16.2-7.2s-1.9,4.3-3.7,9.5l6.4-4.9c0,0,5.8-4.7,9.8,1.7
				c0,0,5.7,13.9-12.5,19.2l-4.2-14.2c-2.4,8.1-3.9,17.5,2.8,17.7C164.4,760.1,172.8,750.3,170.5,738z"/>
			<path opacity="0.4" fill="#FFFFFF" enable-background="new    " d="M139.2,658.8c0,0-13.4,19.6,0,30.3
				c13.4,10.8,10.2,24.4,0,34.4c0,0,20.9-13,4.7-34.4C143.9,689.1,131.7,676.4,139.2,658.8z"/>
		</g>
	</g>
</g>
</svg>
