<?xml version="1.0" encoding="utf-8"?>
<!-- Generator: Adobe Illustrator 18.1.1, SVG Export Plug-In . SVG Version: 6.00 Build 0)  -->
<svg version="1.1" id="Layer_1" xmlns="http://www.w3.org/2000/svg" xmlns:xlink="http://www.w3.org/1999/xlink" x="0px" y="0px"
	 width="24px" height="25px" viewBox="0 0 24 25" enable-background="new 0 0 24 25" xml:space="preserve">
<g>
	<path fill="#FFFFFF" d="M21.4,16.9l-1,1c-0.1,0.1-0.3,0.2-0.4,0.2c-0.2,0-0.3-0.1-0.4-0.2L12,10.4l-7.5,7.5C4.4,18,4.2,18.1,4,18.1
		c-0.2,0-0.3-0.1-0.4-0.2l-1-1c-0.1-0.1-0.2-0.3-0.2-0.4c0-0.2,0.1-0.3,0.2-0.4l8.9-8.9C11.7,7,11.8,6.9,12,6.9s0.3,0.1,0.4,0.2
		l8.9,8.9c0.1,0.1,0.2,0.3,0.2,0.4C21.6,16.6,21.5,16.8,21.4,16.9z"/>
</g>
<g>
</g>
<g>
</g>
<g>
</g>
<g>
</g>
<g>
</g>
<g>
</g>
<g>
</g>
<g>
</g>
<g>
</g>
<g>
</g>
<g>
</g>
<g>
</g>
<g>
</g>
<g>
</g>
<g>
</g>
</svg>
