<?xml version="1.0" encoding="UTF-8" standalone="no"?>
<svg width="150px" height="26px" viewBox="0 0 150 26" version="1.1" xmlns="http://www.w3.org/2000/svg" xmlns:xlink="http://www.w3.org/1999/xlink" xmlns:sketch="http://www.bohemiancoding.com/sketch/ns">
    <!-- Generator: Sketch 3.2.2 (9983) - http://www.bohemiancoding.com/sketch -->
    <title>Slice 1</title>
    <desc>Created with Sketch.</desc>
    <defs></defs>
    <g id="Page-1" stroke="none" stroke-width="1" fill="none" fill-rule="evenodd" sketch:type="MSPage">
        <g id="blakeMattos" sketch:type="MSLayerGroup">
            <g id="Group" sketch:type="MSShapeGroup">
                <g id="Shape" fill="#0A1B30">
                    <path d="M6.8,0.3 C8.7,0.3 10,1.4 10.5,2.8 C11.1,4.3 11,6.1 9.4,7.2 C11.1,7.9 11.8,9.6 11.8,11 C11.8,13.3 10.3,15.6 7.3,15.6 L0.4,15.6 L0.4,0.3 L6.8,0.3 L6.8,0.3 Z M2.6,6.4 L6.7,6.4 C9.1,6.4 9.2,2.4 6.7,2.4 L2.6,2.4 L2.6,6.4 L2.6,6.4 Z M2.6,13.4 L7.3,13.4 C8.8,13.4 9.5,12.1 9.5,10.9 C9.5,9.7 8.8,8.4 7.3,8.4 L2.6,8.4 L2.6,13.4 L2.6,13.4 Z"></path>
                    <path d="M15.7,13.4 L22.9,13.4 L22.9,15.6 L13.5,15.6 L13.5,0.3 L15.7,0.3 L15.7,13.4 L15.7,13.4 Z"></path>
                    <path d="M33.2,11 L27.7,11 C27.2,12.4 26.3,14.3 25.9,15.5 L23.5,15.5 L29.6,0 L31.2,0 L37.3,15.5 L34.9,15.5 L33.2,11 L33.2,11 Z M28.6,9 L32.4,9 L30.5,3.5 L28.6,9 L28.6,9 Z"></path>
                    <path d="M40.9,0.3 L40.9,15.6 L38.7,15.6 L38.7,0.3 L40.9,0.3 L40.9,0.3 Z M41.3,7.4 L46.7,0.3 L49.4,0.3 L43.6,7.9 L50.1,15.5 L47.2,15.5 L41.4,8.4 C41.3,8.4 41.3,7.4 41.3,7.4 L41.3,7.4 Z"></path>
                    <path d="M52.8,13.4 L59.9,13.4 L59.9,15.6 L50.6,15.6 L50.6,0.3 L59.9,0.3 L59.9,2.5 L52.8,2.5 L52.8,6.8 L59.7,6.8 L59.7,9 L52.8,9 L52.8,13.4 L52.8,13.4 Z"></path>
                    <path d="M71.9,15.6 L69.7,15.6 L69.7,0.3 L71.5,0.3 L76.5,7.8 L81.5,0.3 L83.2,0.3 L83.2,15.6 L81,15.6 L81,4.8 L77,10.7 L75.7,10.7 L71.7,4.8 L71.9,15.6 L71.9,15.6 Z"></path>
                    <path d="M94.1,11 L88.6,11 C88.1,12.4 87.2,14.3 86.8,15.5 L84.4,15.5 L90.5,0 L92.1,0 L98.2,15.5 L95.8,15.5 L94.1,11 L94.1,11 Z M89.4,9 L93.2,9 L91.3,3.6 L89.4,9 L89.4,9 Z"></path>
                    <path d="M101.1,15.6 L101.1,2.3 L96.5,2.3 L96.5,0.3 L107.9,0.3 L107.9,2.4 L103.4,2.4 L103.4,15.7 L101.1,15.7 L101.1,15.6 Z"></path>
                    <path d="M113.8,15.6 L113.8,2.3 L109.2,2.3 L109.2,0.3 L120.7,0.3 L120.7,2.4 L116.1,2.4 L116.1,15.7 L113.8,15.7 L113.8,15.6 Z"></path>
                    <path d="M122.6,2.4 C124,0.9 126,0.1 128.1,0.1 C130.3,0.1 132.2,1 133.7,2.4 C135.1,3.9 136,5.8 136,8 C136,10.2 135.1,12.1 133.7,13.6 C132.2,15.1 130.3,15.9 128.1,15.9 C125.9,15.9 124,15 122.6,13.6 C121.2,12.1 120.3,10.2 120.3,8 C120.3,5.8 121.2,3.8 122.6,2.4 L122.6,2.4 Z M132.1,3.9 C131.1,2.9 129.6,2.3 128.2,2.3 C126.7,2.3 125.3,2.9 124.3,3.9 C123.3,4.9 122.7,6.3 122.7,7.8 C122.7,9.3 123.3,10.7 124.3,11.7 C125.3,12.7 126.7,13.3 128.2,13.3 C129.7,13.3 131.1,12.7 132.1,11.7 C133.1,10.7 133.7,9.3 133.7,7.8 C133.7,6.4 133.1,4.9 132.1,3.9 L132.1,3.9 Z"></path>
                    <path d="M146.2,4.2 C145.9,2.8 144.4,2.2 143.1,2.3 C142.1,2.3 140.9,2.7 140.4,3.5 C140.1,3.9 139.9,4.4 140,5 C140.1,6.5 141.8,6.7 143.5,6.9 C145.6,7.2 148.2,7.7 148.8,10.2 C148.9,10.6 148.9,10.9 148.9,11.2 C148.9,14.1 146,15.8 143.3,15.8 C140.9,15.8 138.1,14.4 137.8,11.7 L137.8,11.2 L140,11.2 L140,11.6 L140,11.5 C140.2,13 141.9,13.7 143.3,13.7 C144.9,13.7 146.8,12.8 146.8,11.2 C146.8,11 146.8,10.8 146.7,10.7 C146.4,9.5 144.9,9.3 143.3,9.2 C140.9,8.9 138.1,8.5 137.8,5.3 L137.8,5.3 C137.7,4.3 138,3.2 138.6,2.4 C139.6,1 141.4,0.4 143.2,0.4 C145.6,0.4 148,1.6 148.4,4.4 L146.2,4.2 L146.2,4.2 Z"></path>
                </g>
                <rect id="Rectangle-path" fill="#0598E2" x="0" y="21.5" width="149.2" height="3.6"></rect>
            </g>
        </g>
    </g>
</svg>