<?xml version="1.0" encoding="utf-8"?>
<!-- Generator: Adobe Illustrator 18.1.1, SVG Export Plug-In . SVG Version: 6.00 Build 0)  -->
<svg version="1.1" id="Layer_1" xmlns="http://www.w3.org/2000/svg" xmlns:xlink="http://www.w3.org/1999/xlink" x="0px" y="0px"
	 width="165px" height="28px" viewBox="-502 87 165 28" enable-background="new -502 87 165 28" xml:space="preserve">
<g>
	<g>
		<path fill="#0A1B30" d="M-495.2,87.3c1.9,0,3.2,1.1,3.7,2.5c0.6,1.5,0.5,3.3-1.1,4.4c1.7,0.7,2.4,2.4,2.4,3.8
			c0,2.3-1.5,4.6-4.5,4.6h-6.9V87.3H-495.2z M-499.4,93.4h4.1c2.4,0,2.5-4,0-4h-4.1V93.4z M-499.4,100.4h4.7c1.5,0,2.2-1.3,2.2-2.5
			c0-1.2-0.7-2.5-2.2-2.5h-4.7V100.4z"/>
		<path fill="#0A1B30" d="M-486.3,100.4h7.2v2.2h-9.4V87.3h2.2V100.4z"/>
		<path fill="#0A1B30" d="M-468.8,98h-5.5c-0.5,1.4-1.4,3.3-1.8,4.5h-2.4l6.1-15.5h1.6l6.1,15.5h-2.4L-468.8,98z M-473.4,96h3.8
			l-1.9-5.5L-473.4,96z"/>
		<path fill="#0A1B30" d="M-461.1,87.3v15.3h-2.2V87.3H-461.1z M-460.7,94.4l5.4-7.1h2.7l-5.8,7.6l6.5,7.6h-2.9l-5.8-7.1
			C-460.7,95.4-460.7,94.4-460.7,94.4z"/>
		<path fill="#0A1B30" d="M-449.2,100.4h7.1v2.2h-9.3V87.3h9.3v2.2h-7.1v4.3h6.9v2.2h-6.9V100.4z"/>
		<path fill="#0A1B30" d="M-430.1,102.6h-2.2V87.3h1.8l5,7.5l5-7.5h1.7v15.3h-2.2V91.8l-4,5.9h-1.3l-4-5.9L-430.1,102.6
			L-430.1,102.6z"/>
		<path fill="#0A1B30" d="M-407.9,98h-5.5c-0.5,1.4-1.4,3.3-1.8,4.5h-2.4l6.1-15.5h1.6l6.1,15.5h-2.4L-407.9,98z M-412.6,96h3.8
			l-1.9-5.4L-412.6,96z"/>
		<path fill="#0A1B30" d="M-400.9,102.6V89.3h-4.6v-2h11.4v2.1h-4.5v13.3H-400.9z"/>
		<path fill="#0A1B30" d="M-388.2,102.6V89.3h-4.6v-2h11.5v2.1h-4.6v13.3H-388.2z"/>
		<path fill="#0A1B30" d="M-379.4,89.4c1.4-1.5,3.4-2.3,5.5-2.3c2.2,0,4.1,0.9,5.6,2.3c1.4,1.5,2.3,3.4,2.3,5.6s-0.9,4.1-2.3,5.6
			c-1.5,1.5-3.4,2.3-5.6,2.3s-4.1-0.9-5.5-2.3c-1.4-1.5-2.3-3.4-2.3-5.6S-380.8,90.8-379.4,89.4z M-369.9,90.9c-1-1-2.5-1.6-3.9-1.6
			c-1.5,0-2.9,0.6-3.9,1.6c-1,1-1.6,2.4-1.6,3.9c0,1.5,0.6,2.9,1.6,3.9c1,1,2.4,1.6,3.9,1.6c1.5,0,2.9-0.6,3.9-1.6
			c1-1,1.6-2.4,1.6-3.9C-368.3,93.4-368.9,91.9-369.9,90.9z"/>
		<path fill="#0A1B30" d="M-355.8,91.2c-0.3-1.4-1.8-2-3.1-1.9c-1,0-2.2,0.4-2.7,1.2c-0.3,0.4-0.5,0.9-0.4,1.5
			c0.1,1.5,1.8,1.7,3.5,1.9c2.1,0.3,4.7,0.8,5.3,3.3c0.1,0.4,0.1,0.7,0.1,1c0,2.9-2.9,4.6-5.6,4.6c-2.4,0-5.2-1.4-5.5-4.1v-0.5h2.2
			v0.4v-0.1c0.2,1.5,1.9,2.2,3.3,2.2c1.6,0,3.5-0.9,3.5-2.5c0-0.2,0-0.4-0.1-0.5c-0.3-1.2-1.8-1.4-3.4-1.5c-2.4-0.3-5.2-0.7-5.5-3.9
			l0,0c-0.1-1,0.2-2.1,0.8-2.9c1-1.4,2.8-2,4.6-2c2.4,0,4.8,1.2,5.2,4L-355.8,91.2z"/>
	</g>
	<rect x="-502" y="108.5" fill="#0598E2" width="149.2" height="3.6"/>
</g>
</svg>
