<?xml version="1.0" encoding="utf-8"?>
<!-- Generator: Adobe Illustrator 18.1.1, SVG Export Plug-In . SVG Version: 6.00 Build 0)  -->
<svg version="1.1" id="Layer_1" xmlns="http://www.w3.org/2000/svg" xmlns:xlink="http://www.w3.org/1999/xlink" x="0px" y="0px"
	 width="1170px" height="200px" viewBox="0 0 1170 200" enable-background="new 0 0 1170 200" xml:space="preserve">
<g>
	<g>
		<g>
			<path fill="#626266" d="M660.2,89.5l0.1,0.6h-8.6l-0.1-0.6c-0.9-4.4-3.6-6.8-8.1-6.8c-5.5,0-9.4,4.7-9.4,13.1
				c0,9.5,4.2,13.7,9.4,13.7c4.5,0,7.2-2.7,8-7.2l0.1-0.6h8.6l-0.1,0.6c-0.9,8.6-7.4,13.6-17.1,13.6c-10.4,0-18.1-7.1-18.1-19.5
				c0-12.8,8.2-20,18.6-20C653.9,76.4,659.4,82,660.2,89.5z"/>
			<path fill="#626266" d="M693.1,100.4c0,9.1-5.8,15.5-15.5,15.5c-9.7,0-15.5-6.3-15.5-15.5S667.9,85,677.7,85
				C687.4,85,693.1,91.3,693.1,100.4z M684.2,100.4c0-6.1-2.5-9.5-6.6-9.5c-4.1,0-6.6,3.4-6.6,9.5c0,6.1,2.5,9.5,6.6,9.5
				C681.7,110,684.2,106.6,684.2,100.4z"/>
			<path fill="#626266" d="M726.2,115.1h-8.6v-4.4l-2.2,3.2c-1.7,1.3-4.6,1.9-7.5,1.9c-8.1,0-13-6.2-13-14.9c0-10.5,6.4-16,14-16
				c2.4,0,5.3,0.6,6.8,1.5l1.9,3.1v-15h8.6V115.1z M717.6,100.8v-1.4c0-6.3-3.5-8.5-6.7-8.5c-4.2,0-7.2,3.2-7.2,9.6
				c0,5.8,2.8,9.4,6.9,9.4C714.5,110,717.6,107.5,717.6,100.8z"/>
			<path fill="#626266" d="M759.1,102.7h-20.6c0.5,5.6,2.9,7.3,6.2,7.3c3,0,5.1-1.7,5.6-4.4h8.5c-1.6,6.8-7.1,10.4-14.3,10.4
				c-8.2,0-14.6-5-14.6-15.4c0-8.8,5.9-15.5,15.2-15.5c9.4,0,14.2,7.1,14.2,14.9C759.3,100.7,759.2,101.7,759.1,102.7z M738.7,97.2
				h11.6c-0.5-4.1-2.4-6.3-5.6-6.3C741.6,91,739.5,92.9,738.7,97.2z"/>
		</g>
	</g>
	<g>
		<path fill="#42424C" d="M465.8,95.6c0,11.9-7.3,18.3-16.1,19.3c-1.9,0.2-2.8,0.2-4.8,0.2h-14.4v-38h14.4c2,0,2.9,0,4.8,0.2
			C458.5,78.4,465.8,83.8,465.8,95.6z M455.4,95.8c0-6.8-3.4-10.4-8.4-10.8c-1.3-0.1-2.1-0.1-3.6-0.1h-3.1v22.6h3.1
			c1.4,0,2.3,0,3.6-0.1C452,106.9,455.4,102.6,455.4,95.8z"/>
		<path fill="#42424C" d="M497.8,102.9h-20.5c0.5,4.9,2.6,6.3,5.5,6.3s4.5-1.4,4.9-3.7h9.7c-1.7,6.7-7.2,10.4-14.8,10.4
			c-8.4,0-15.1-5-15.1-15.4c0-8.6,5.9-15.6,15.7-15.6c9.8,0,14.8,7.5,14.8,15.1C498,100.9,497.9,101.9,497.8,102.9z M477.7,96.9h10
			c-0.6-3.5-2.3-5.2-4.9-5.2C480.2,91.7,478.3,93.2,477.7,96.9z"/>
		<path fill="#42424C" d="M525.6,94.3h-9.7c-0.4-2-1.4-3.2-3.2-3.2c-1.4,0-2.4,0.9-2.4,2.1c0,1.7,1.3,2.8,6.9,4.1
			c5.3,1.3,9.1,3.6,9.1,9.3c0,6.3-5.9,9.2-13,9.2c-8,0-13.4-3.3-14.2-9.9h9.7c0.6,2.3,2.3,3.7,4.4,3.7c1.8,0,3.1-0.7,3.1-2.3
			c0-1.9-1.9-2.9-7.1-4.1c-5.6-1.3-9-3.9-9-8.9c0-5.8,5.1-9.5,12.9-9.5C520.6,85,524.9,89,525.6,94.3z"/>
		<path fill="#42424C" d="M539.2,78.6c0,3-2,4.8-5.1,4.8s-5.1-1.9-5.1-4.8s2-4.8,5.1-4.8S539.2,75.7,539.2,78.6z M529.2,115.1V85.7
			h9.9v29.4H529.2z"/>
		<path fill="#42424C" d="M574.8,107.7c0,1.8,0,4.1-0.1,5.7c-0.3,9.6-6.9,13.9-16.9,13.9c-8.8,0-14.2-3.6-14.9-10.3l-0.1-0.6h9.6
			l0.1,0.6c0.2,1.9,2.5,3,5.6,3c3.7,0,6.4-1.6,6.7-5.6c0.1-0.9,0.1-2.3,0.1-3.9v-0.8l-2.2,3.2c-1.7,1.2-4,1.8-6.9,1.8
			c-8,0-13.5-5.5-13.5-14.2c0-10.5,6.4-15.7,13.9-15.7c2.4,0,5.3,0.6,6.8,1.4l1.9,3.1v-3.8h9.9V107.7z M564.9,99.7v-0.2
			c0-5.9-3-7.9-6-7.9c-3.9,0-6.5,2.3-6.5,8.3c0,5.5,2.8,8.2,6.2,8.2C562.3,108.1,564.9,105.9,564.9,99.7z"/>
		<path fill="#42424C" d="M609.5,98.5v16.6h-9.9v-15c0-0.9,0-2.5-0.1-4c-0.2-2.8-1.8-4.5-4.7-4.5c-3,0-5.2,2.9-5.2,9.6v13.9h-9.9
			V85.7h9.9v4.6l2.6-3.6c1.8-1.1,3.9-1.7,6.6-1.7c6.1,0,9.6,2.9,10.4,8C609.5,94.4,609.5,96.1,609.5,98.5z"/>
	</g>
	<g>
		<g>
			<path fill="#0598E2" d="M610.2,116.8L624,75.5h5.2l-13.8,41.3H610.2z"/>
		</g>
	</g>
</g>
<g>
</g>
<g>
</g>
<g>
</g>
<g>
</g>
<g>
</g>
<g>
</g>
<g>
</g>
<g>
</g>
<g>
</g>
<g>
</g>
<g>
</g>
<g>
</g>
<g>
</g>
<g>
</g>
<g>
</g>
</svg>
