<?xml version="1.0" encoding="utf-8"?>
<!-- Generator: Adobe Illustrator 18.1.1, SVG Export Plug-In . SVG Version: 6.00 Build 0)  -->
<svg version="1.1" id="Layer_1" xmlns="http://www.w3.org/2000/svg" xmlns:xlink="http://www.w3.org/1999/xlink" x="0px" y="0px"
	 width="1170px" height="200px" viewBox="430 56 1170 200" enable-background="new 430 56 1170 200" xml:space="preserve">
<g>
	<g>
		<g>
			<path fill="#626266" d="M1090.2,145.5l0.1,0.6h-8.6l-0.1-0.6c-0.9-4.4-3.6-6.8-8.1-6.8c-5.5,0-9.4,4.7-9.4,13.1
				c0,9.5,4.2,13.7,9.4,13.7c4.5,0,7.2-2.7,8-7.2l0.1-0.6h8.6l-0.1,0.6c-0.9,8.6-7.4,13.6-17.1,13.6c-10.4,0-18.1-7.1-18.1-19.5
				c0-12.8,8.2-20,18.6-20C1083.9,132.4,1089.4,138,1090.2,145.5z"/>
			<path fill="#626266" d="M1123.1,156.4c0,9.1-5.8,15.5-15.5,15.5s-15.5-6.3-15.5-15.5c0-9.2,5.8-15.4,15.6-15.4
				C1117.4,141,1123.1,147.3,1123.1,156.4z M1114.2,156.4c0-6.1-2.5-9.5-6.6-9.5c-4.1,0-6.6,3.4-6.6,9.5c0,6.1,2.5,9.5,6.6,9.5
				C1111.7,166,1114.2,162.6,1114.2,156.4z"/>
			<path fill="#626266" d="M1156.2,171.1h-8.6v-4.4l-2.2,3.2c-1.7,1.3-4.6,1.9-7.5,1.9c-8.1,0-13-6.2-13-14.9c0-10.5,6.4-16,14-16
				c2.4,0,5.3,0.6,6.8,1.5l1.9,3.1v-15h8.6V171.1z M1147.6,156.8v-1.4c0-6.3-3.5-8.5-6.7-8.5c-4.2,0-7.2,3.2-7.2,9.6
				c0,5.8,2.8,9.4,6.9,9.4C1144.5,166,1147.6,163.5,1147.6,156.8z"/>
			<path fill="#626266" d="M1189.1,158.7h-20.6c0.5,5.6,2.9,7.3,6.2,7.3c3,0,5.1-1.7,5.6-4.4h8.5c-1.6,6.8-7.1,10.4-14.3,10.4
				c-8.2,0-14.6-5-14.6-15.4c0-8.8,5.9-15.5,15.2-15.5c9.4,0,14.2,7.1,14.2,14.9C1189.3,156.7,1189.2,157.7,1189.1,158.7z
				 M1168.7,153.2h11.6c-0.5-4.1-2.4-6.3-5.6-6.3C1171.6,147,1169.5,148.9,1168.7,153.2z"/>
		</g>
	</g>
	<g>
		<path fill="#42424C" d="M895.8,151.6c0,11.9-7.3,18.3-16.1,19.3c-1.9,0.2-2.8,0.2-4.8,0.2h-14.4v-38h14.4c2,0,2.9,0,4.8,0.2
			C888.5,134.4,895.8,139.8,895.8,151.6z M885.4,151.8c0-6.8-3.4-10.4-8.4-10.8c-1.3-0.1-2.1-0.1-3.6-0.1h-3.1v22.6h3.1
			c1.4,0,2.3,0,3.6-0.1C882,162.9,885.4,158.6,885.4,151.8z"/>
		<path fill="#42424C" d="M927.8,158.9h-20.5c0.5,4.9,2.6,6.3,5.5,6.3s4.5-1.4,4.9-3.7h9.7c-1.7,6.7-7.2,10.4-14.8,10.4
			c-8.4,0-15.1-5-15.1-15.4c0-8.6,5.9-15.6,15.7-15.6S928,148.4,928,156C928,156.9,927.9,157.9,927.8,158.9z M907.7,152.9h10
			c-0.6-3.5-2.3-5.2-4.9-5.2C910.2,147.7,908.3,149.2,907.7,152.9z"/>
		<path fill="#42424C" d="M955.6,150.3h-9.7c-0.4-2-1.4-3.2-3.2-3.2c-1.4,0-2.4,0.9-2.4,2.1c0,1.7,1.3,2.8,6.9,4.1
			c5.3,1.3,9.1,3.6,9.1,9.3c0,6.3-5.9,9.2-13,9.2c-8,0-13.4-3.3-14.2-9.9h9.7c0.6,2.3,2.3,3.7,4.4,3.7c1.8,0,3.1-0.7,3.1-2.3
			c0-1.9-1.9-2.9-7.1-4.1c-5.6-1.3-9-3.9-9-8.9c0-5.8,5.1-9.5,12.9-9.5C950.6,141,954.9,145,955.6,150.3z"/>
		<path fill="#42424C" d="M969.2,134.6c0,3-2,4.8-5.1,4.8s-5.1-1.9-5.1-4.8c0-2.9,2-4.8,5.1-4.8S969.2,131.7,969.2,134.6z
			 M959.2,171.1v-29.4h9.9v29.4H959.2z"/>
		<path fill="#42424C" d="M1004.8,163.7c0,1.8,0,4.1-0.1,5.7c-0.3,9.6-6.9,13.9-16.9,13.9c-8.8,0-14.2-3.6-14.9-10.3l-0.1-0.6h9.6
			l0.1,0.6c0.2,1.9,2.5,3,5.6,3c3.7,0,6.4-1.6,6.7-5.6c0.1-0.9,0.1-2.3,0.1-3.9v-0.8l-2.2,3.2c-1.7,1.2-4,1.8-6.9,1.8
			c-8,0-13.5-5.5-13.5-14.2c0-10.5,6.4-15.7,13.9-15.7c2.4,0,5.3,0.6,6.8,1.4l1.9,3.1v-3.8h9.9L1004.8,163.7L1004.8,163.7z
			 M994.9,155.7v-0.2c0-5.9-3-7.9-6-7.9c-3.9,0-6.5,2.3-6.5,8.3c0,5.5,2.8,8.2,6.2,8.2C992.3,164.1,994.9,161.9,994.9,155.7z"/>
		<path fill="#42424C" d="M1039.5,154.5v16.6h-9.9v-15c0-0.9,0-2.5-0.1-4c-0.2-2.8-1.8-4.5-4.7-4.5c-3,0-5.2,2.9-5.2,9.6v13.9h-9.9
			v-29.4h9.9v4.6l2.6-3.6c1.8-1.1,3.9-1.7,6.6-1.7c6.1,0,9.6,2.9,10.4,8C1039.5,150.4,1039.5,152.1,1039.5,154.5z"/>
	</g>
	<g>
		<g>
			<path fill="#0598E2" d="M1040.2,172.8l13.8-41.3h5.2l-13.8,41.3H1040.2z"/>
		</g>
	</g>
</g>
<rect x="818.1" y="94.5" display="none" fill="#FFFFFF" width="433" height="151"/>
<g display="none">
	<g display="inline">
		<path fill="#0A1B30" d="M966.8,142.6c1.9,0,3.2,1.1,3.7,2.5c0.6,1.5,0.5,3.3-1.1,4.4c1.7,0.7,2.4,2.4,2.4,3.8
			c0,2.3-1.5,4.6-4.5,4.6h-6.9v-15.3H966.8z M962.6,148.7h4.1c2.4,0,2.5-4,0-4h-4.1V148.7z M962.6,155.7h4.7c1.5,0,2.2-1.3,2.2-2.5
			s-0.7-2.5-2.2-2.5h-4.7V155.7z"/>
		<path fill="#0A1B30" d="M975.7,155.7h7.2v2.2h-9.4v-15.3h2.2L975.7,155.7L975.7,155.7z"/>
		<path fill="#0A1B30" d="M993.2,153.3h-5.5c-0.5,1.4-1.4,3.3-1.8,4.5h-2.4l6.1-15.5h1.6l6.1,15.5h-2.4L993.2,153.3z M988.6,151.3
			h3.8l-1.9-5.5L988.6,151.3z"/>
		<path fill="#0A1B30" d="M1000.9,142.6v15.3h-2.2v-15.3H1000.9z M1001.3,149.7l5.4-7.1h2.7l-5.8,7.6l6.5,7.6h-2.9l-5.8-7.1
			C1001.3,150.7,1001.3,149.7,1001.3,149.7z"/>
		<path fill="#0A1B30" d="M1012.8,155.7h7.1v2.2h-9.3v-15.3h9.3v2.2h-7.1v4.3h6.9v2.2h-6.9V155.7z"/>
		<path fill="#0A1B30" d="M1031.9,157.9h-2.2v-15.3h1.8l5,7.5l5-7.5h1.7v15.3h-2.2v-10.8l-4,5.9h-1.3l-4-5.9L1031.9,157.9
			L1031.9,157.9z"/>
		<path fill="#0A1B30" d="M1054.1,153.3h-5.5c-0.5,1.4-1.4,3.3-1.8,4.5h-2.4l6.1-15.5h1.6l6.1,15.5h-2.4L1054.1,153.3z
			 M1049.4,151.3h3.8l-1.9-5.4L1049.4,151.3z"/>
		<path fill="#0A1B30" d="M1061.1,157.9v-13.3h-4.6v-2h11.4v2.1h-4.5V158h-2.3V157.9z"/>
		<path fill="#0A1B30" d="M1073.8,157.9v-13.3h-4.6v-2h11.5v2.1h-4.6V158h-2.3V157.9z"/>
		<path fill="#0A1B30" d="M1082.6,144.7c1.4-1.5,3.4-2.3,5.5-2.3c2.2,0,4.1,0.9,5.6,2.3c1.4,1.5,2.3,3.4,2.3,5.6s-0.9,4.1-2.3,5.6
			c-1.5,1.5-3.4,2.3-5.6,2.3s-4.1-0.9-5.5-2.3c-1.4-1.5-2.3-3.4-2.3-5.6S1081.2,146.1,1082.6,144.7z M1092.1,146.2
			c-1-1-2.5-1.6-3.9-1.6c-1.5,0-2.9,0.6-3.9,1.6s-1.6,2.4-1.6,3.9s0.6,2.9,1.6,3.9s2.4,1.6,3.9,1.6s2.9-0.6,3.9-1.6s1.6-2.4,1.6-3.9
			C1093.7,148.7,1093.1,147.2,1092.1,146.2z"/>
		<path fill="#0A1B30" d="M1106.2,146.5c-0.3-1.4-1.8-2-3.1-1.9c-1,0-2.2,0.4-2.7,1.2c-0.3,0.4-0.5,0.9-0.4,1.5
			c0.1,1.5,1.8,1.7,3.5,1.9c2.1,0.3,4.7,0.8,5.3,3.3c0.1,0.4,0.1,0.7,0.1,1c0,2.9-2.9,4.6-5.6,4.6c-2.4,0-5.2-1.4-5.5-4.1v-0.5h2.2
			v0.4v-0.1c0.2,1.5,1.9,2.2,3.3,2.2c1.6,0,3.5-0.9,3.5-2.5c0-0.2,0-0.4-0.1-0.5c-0.3-1.2-1.8-1.4-3.4-1.5c-2.4-0.3-5.2-0.7-5.5-3.9
			l0,0c-0.1-1,0.2-2.1,0.8-2.9c1-1.4,2.8-2,4.6-2c2.4,0,4.8,1.2,5.2,4L1106.2,146.5z"/>
	</g>
	<rect x="960" y="163.8" display="inline" fill="#0598E2" width="149.2" height="3.6"/>
</g>
</svg>
